<svg width="157" height="52" viewBox="0 0 157 52" fill="none" xmlns="http://www.w3.org/2000/svg">
<path d="M60.2756 39.721C58.9929 39.721 57.8336 39.4496 56.7976 38.907C55.7616 38.3643 54.9352 37.6243 54.3186 36.687C53.7019 35.7496 53.3689 34.7013 53.3196 33.542V27.178C53.3689 26.0186 53.7019 24.9826 54.3186 24.07C54.9599 23.1326 55.7986 22.405 56.8346 21.887C57.8706 21.369 59.0176 21.11 60.2756 21.11C61.9282 21.11 63.4082 21.517 64.7156 22.331C66.0229 23.145 67.0466 24.255 67.7866 25.661C68.5512 27.067 68.9336 28.658 68.9336 30.434C68.9336 32.1853 68.5512 33.764 67.7866 35.17C67.0466 36.576 66.0229 37.686 64.7156 38.5C63.4082 39.314 61.9282 39.721 60.2756 39.721ZM59.4616 35.244C60.3496 35.244 61.1266 35.0466 61.7926 34.652C62.4832 34.2326 63.0136 33.6653 63.3836 32.95C63.7782 32.21 63.9756 31.359 63.9756 30.397C63.9756 29.4596 63.7782 28.6333 63.3836 27.918C63.0136 27.178 62.4832 26.6106 61.7926 26.216C61.1019 25.7966 60.3126 25.587 59.4246 25.587C58.5366 25.587 57.7472 25.7966 57.0566 26.216C56.3906 26.6106 55.8602 27.178 55.4656 27.918C55.0956 28.6333 54.9106 29.4596 54.9106 30.397C54.9106 31.359 55.0956 32.21 55.4656 32.95C55.8602 33.6653 56.4029 34.2326 57.0936 34.652C57.7842 35.0466 58.5736 35.244 59.4616 35.244ZM50.3596 39.351V12.6H55.2066V25.883L54.3926 30.175L55.1696 34.541V39.351H50.3596ZM79.7335 39.721C78.1549 39.721 76.7489 39.388 75.5155 38.722C74.3069 38.056 73.3572 37.131 72.6665 35.947C71.9759 34.763 71.6305 33.394 71.6305 31.84V21.48H76.5145V31.729C76.5145 32.469 76.6379 33.1103 76.8845 33.653C77.1312 34.171 77.5012 34.5656 77.9945 34.837C78.4879 35.1083 79.0675 35.244 79.7335 35.244C80.7449 35.244 81.5342 34.9356 82.1015 34.319C82.6689 33.7023 82.9525 32.839 82.9525 31.729V21.48H87.7995V31.84C87.7995 33.4186 87.4542 34.8 86.7635 35.984C86.0975 37.168 85.1479 38.093 83.9145 38.759C82.7059 39.4003 81.3122 39.721 79.7335 39.721ZM99.2074 39.721C97.5547 39.721 96.0747 39.314 94.7674 38.5C93.46 37.686 92.424 36.576 91.6594 35.17C90.9194 33.764 90.5494 32.1853 90.5494 30.434C90.5494 28.658 90.9194 27.067 91.6594 25.661C92.424 24.255 93.4477 23.145 94.7304 22.331C96.0377 21.517 97.53 21.11 99.2074 21.11C100.49 21.11 101.637 21.369 102.648 21.887C103.684 22.405 104.511 23.1326 105.127 24.07C105.769 24.9826 106.114 26.0186 106.163 27.178V33.542C106.114 34.7013 105.781 35.7496 105.164 36.687C104.548 37.6243 103.721 38.3643 102.685 38.907C101.649 39.4496 100.49 39.721 99.2074 39.721ZM100.021 35.244C100.934 35.244 101.723 35.0466 102.389 34.652C103.08 34.2326 103.61 33.6653 103.98 32.95C104.375 32.21 104.572 31.359 104.572 30.397C104.572 29.4596 104.375 28.6333 103.98 27.918C103.61 27.178 103.08 26.6106 102.389 26.216C101.723 25.7966 100.946 25.587 100.058 25.587C99.1457 25.587 98.344 25.7966 97.6534 26.216C96.9874 26.6353 96.457 27.2026 96.0624 27.918C95.6924 28.6333 95.5074 29.4596 95.5074 30.397C95.5074 31.359 95.6924 32.21 96.0624 32.95C96.457 33.6653 96.9997 34.2326 97.6904 34.652C98.381 35.0466 99.158 35.244 100.021 35.244ZM109.123 39.351H104.313V34.541L105.09 30.175L104.276 25.883V12.6H109.123V39.351ZM119.553 39.758C118.542 39.758 117.543 39.6223 116.556 39.351C115.594 39.0796 114.706 38.7096 113.892 38.241C113.078 37.7476 112.375 37.1556 111.783 36.465L114.669 33.542C115.286 34.2326 116.001 34.7506 116.815 35.096C117.629 35.4413 118.53 35.614 119.516 35.614C120.306 35.614 120.898 35.503 121.292 35.281C121.712 35.059 121.921 34.726 121.921 34.282C121.921 33.7886 121.699 33.4063 121.255 33.135C120.836 32.8636 120.281 32.6416 119.59 32.469C118.9 32.2716 118.172 32.062 117.407 31.84C116.667 31.5933 115.952 31.285 115.261 30.915C114.571 30.5203 114.003 29.99 113.559 29.324C113.14 28.6333 112.93 27.7453 112.93 26.66C112.93 25.5253 113.202 24.5386 113.744 23.7C114.312 22.8613 115.113 22.2076 116.149 21.739C117.185 21.2703 118.406 21.036 119.812 21.036C121.292 21.036 122.624 21.295 123.808 21.813C125.017 22.331 126.016 23.108 126.805 24.144L123.882 27.067C123.34 26.401 122.723 25.92 122.032 25.624C121.366 25.328 120.639 25.18 119.849 25.18C119.134 25.18 118.579 25.291 118.184 25.513C117.814 25.735 117.629 26.0433 117.629 26.438C117.629 26.882 117.839 27.2273 118.258 27.474C118.702 27.7206 119.27 27.9426 119.96 28.14C120.651 28.3126 121.366 28.5223 122.106 28.769C122.871 28.991 123.586 29.3116 124.252 29.731C124.943 30.1503 125.498 30.7053 125.917 31.396C126.361 32.0866 126.583 32.9746 126.583 34.06C126.583 35.8113 125.954 37.205 124.696 38.241C123.438 39.2523 121.724 39.758 119.553 39.758ZM135.994 39.758C134.982 39.758 133.983 39.6223 132.997 39.351C132.035 39.0796 131.147 38.7096 130.333 38.241C129.519 37.7476 128.816 37.1556 128.224 36.465L131.11 33.542C131.726 34.2326 132.442 34.7506 133.256 35.096C134.07 35.4413 134.97 35.614 135.957 35.614C136.746 35.614 137.338 35.503 137.733 35.281C138.152 35.059 138.362 34.726 138.362 34.282C138.362 33.7886 138.14 33.4063 137.696 33.135C137.276 32.8636 136.721 32.6416 136.031 32.469C135.34 32.2716 134.612 32.062 133.848 31.84C133.108 31.5933 132.392 31.285 131.702 30.915C131.011 30.5203 130.444 29.99 130 29.324C129.58 28.6333 129.371 27.7453 129.371 26.66C129.371 25.5253 129.642 24.5386 130.185 23.7C130.752 22.8613 131.554 22.2076 132.59 21.739C133.626 21.2703 134.847 21.036 136.253 21.036C137.733 21.036 139.065 21.295 140.249 21.813C141.457 22.331 142.456 23.108 143.246 24.144L140.323 27.067C139.78 26.401 139.163 25.92 138.473 25.624C137.807 25.328 137.079 25.18 136.29 25.18C135.574 25.18 135.019 25.291 134.625 25.513C134.255 25.735 134.07 26.0433 134.07 26.438C134.07 26.882 134.279 27.2273 134.699 27.474C135.143 27.7206 135.71 27.9426 136.401 28.14C137.091 28.3126 137.807 28.5223 138.547 28.769C139.311 28.991 140.027 29.3116 140.693 29.731C141.383 30.1503 141.938 30.7053 142.358 31.396C142.802 32.0866 143.024 32.9746 143.024 34.06C143.024 35.8113 142.395 37.205 141.137 38.241C139.879 39.2523 138.164 39.758 135.994 39.758Z" fill="white"/>
<path opacity="0.7" d="M25.3803 26.2532L22.1351 26.297C18.2732 26.3492 15.1003 23.2608 15.0481 19.3989V19.3989C14.9959 15.5371 18.0843 12.3641 21.9462 12.3119L37.9886 12.0952" stroke="#FFAA4C" stroke-width="8.44412" stroke-linecap="round"/>
<path opacity="0.7" d="M36.571 40.4025L20.5201 40.3593C16.6618 40.3489 13.5425 37.2127 13.5529 33.3545V33.3545C13.5633 29.5038 16.6876 26.3876 20.5382 26.3873L25.5064 26.3868" stroke="#2FDBBC" stroke-width="8.44412" stroke-linecap="round"/>
<path opacity="0.7" d="M36.6739 40.2687L26.426 27.8077C25.5017 26.6838 25.5611 25.0471 26.5643 23.9931L37.9158 12.068" stroke="#954CED" stroke-width="8.44412" stroke-linecap="round"/>
</svg>
